<svg id="Layer_1" data-name="Layer 1" xmlns="http://www.w3.org/2000/svg" viewBox="0 0 378.96 437.02"><defs><style>.cls-1{fill:#e7c734;}.cls-2{fill:#231f20;}</style></defs><rect class="cls-1" x="111.32" y="11.05" width="154.89" height="97.15" rx="10.08"/><path class="cls-2" d="M256.12,19.61a1.52,1.52,0,0,1,1.53,1.52v77a1.52,1.52,0,0,1-1.53,1.52H121.4a1.52,1.52,0,0,1-1.52-1.52v-77a1.52,1.52,0,0,1,1.52-1.52H256.12m0-17.12H121.4a18.66,18.66,0,0,0-18.64,18.64v77a18.66,18.66,0,0,0,18.64,18.63H256.12a18.66,18.66,0,0,0,18.64-18.63v-77A18.66,18.66,0,0,0,256.12,2.49Z"/><rect class="cls-1" x="80.9" y="321.95" width="213.21" height="98.91" rx="9.39"/><path class="cls-2" d="M284.72,330.51a.83.83,0,0,1,.83.83v80.14a.83.83,0,0,1-.83.83H90.29a.83.83,0,0,1-.83-.83V331.34a.83.83,0,0,1,.83-.83H284.72m0-17.11H90.29a18,18,0,0,0-18,17.94v80.14a18,18,0,0,0,18,17.94H284.72a18,18,0,0,0,17.95-17.94V331.34a18,18,0,0,0-17.95-17.94Z"/><rect class="cls-1" x="11.17" y="72.86" width="355.12" height="305.7" rx="80.7"/><path class="cls-2" d="M285.59,81.42a72.14,72.14,0,0,1,72.14,72.14v144.3A72.14,72.14,0,0,1,285.59,370H91.87a72.14,72.14,0,0,1-72.14-72.14V153.56A72.14,72.14,0,0,1,91.87,81.42H285.59m0-17.11H91.87A89.36,89.36,0,0,0,2.61,153.56v144.3a89.36,89.36,0,0,0,89.26,89.26H285.59a89.36,89.36,0,0,0,89.26-89.26V153.56a89.36,89.36,0,0,0-89.26-89.25Z"/><circle class="cls-2" cx="134.82" cy="221.71" r="22.58"/><circle class="cls-2" cx="241.13" cy="221.71" r="22.58"/><path class="cls-2" d="M138.69,278.28c19.46,7.92,40.81,14.05,61.78,10.88,13-1.69,25.52-6.11,37.6-11.07a5,5,0,0,1,5.21,8.32,59.51,59.51,0,0,1-5.79,5c-22.75,17.2-52.87,21.62-79.22,10.72a86,86,0,0,1-19.49-10.78,61.52,61.52,0,0,1-5.83-4.86,5,5,0,0,1-.18-7.12,5.16,5.16,0,0,1,5.92-1.06Z"/></svg>