<?xml version="1.0" encoding="utf-8"?>
<!-- Generator: Adobe Illustrator 26.2.1, SVG Export Plug-In . SVG Version: 6.00 Build 0)  -->
<svg version="1.1" id="Layer_1" xmlns="http://www.w3.org/2000/svg" xmlns:xlink="http://www.w3.org/1999/xlink" x="0px" y="0px"
	 viewBox="0 0 155.3 143.9" style="enable-background:new 0 0 155.3 143.9;" xml:space="preserve">
<style type="text/css">
	.st0{fill:#E7C734;}
	.st1{fill:#231F20;}
	.st2{fill:#ED1C24;stroke:#231F20;stroke-width:17;stroke-miterlimit:10;}
	.st3{fill:#ED1C24;stroke:#231F20;stroke-width:6;stroke-linecap:round;stroke-miterlimit:10;}
	.st4{fill:#ED1C24;}
	.st5{fill:#ED1C24;stroke:#000000;stroke-width:6;stroke-linecap:round;stroke-miterlimit:10;}
	.st6{fill:#FFFFFF;}
	.st7{fill:#E0DCD5;}
	.st8{fill:#4D97FF;}
	.st9{fill:#435F8C;}
	.st10{fill:#FFFFFF;stroke:#000000;stroke-width:17.517;stroke-miterlimit:10;}
	.st11{fill:none;stroke:#70AFF9;stroke-width:6.4775;stroke-linecap:round;stroke-miterlimit:10;}
</style>
<circle cx="23.2" cy="27.5" r="23.2"/>
<circle cx="132.2" cy="27.5" r="23.2"/>
<path d="M37.7,123.7L37.7,123.7c0-2.4,1.9-4.3,4.3-4.3h67c1.6-0.1,4.2-0.5,6.2-1.2c1.6-0.6,3.3-0.2,4.5,1l0,0c2.2,2.2,1.4,6-1.6,7.1
	c-3.9,1.4-7.9,1.7-8.9,1.7L42,128C39.6,128,37.7,126.1,37.7,123.7z"/>
<path d="M88,143.9H66.7c-2.4,0-4.3-1.9-4.3-4.3l0,0c0-2.4,1.9-4.3,4.3-4.3H88c2.4,0,4.3,1.9,4.3,4.3l0,0
	C92.3,142,90.4,143.9,88,143.9z"/>
<path d="M42.4,9.3c-0.7,0.5-1.6,0.5-2.3,0.1c-1.2-0.7-2.5-0.7-2.6-0.7h-29c-2.4,0-4.3-1.9-4.3-4.3V4.3C4.2,1.9,6.1,0,8.5,0h29.1
	c0.5,0,4.4,0.1,7.8,2.5c1.5,1.1,1.6,3.3,0.1,4.4L42.4,9.3z"/>
<path d="M113.5,9.3c0.7,0.5,1.6,0.5,2.3,0.1c1.2-0.7,2.5-0.7,2.6-0.7h29c2.4,0,4.3-1.9,4.3-4.3V4.3c0-2.4-1.9-4.3-4.3-4.3l-29.1,0
	c-0.5,0-4.4,0.1-7.8,2.5c-1.5,1.1-1.6,3.3-0.1,4.4L113.5,9.3z"/>
</svg>
