<?xml version="1.0" encoding="UTF-8"?><svg id="a" xmlns="http://www.w3.org/2000/svg" viewBox="0 0 230.77 133.76"><circle cx="62.96" cy="22.58" r="22.58"/><circle cx="169.27" cy="22.58" r="22.58"/><path d="M66.84,79.15c19.45,7.92,40.81,14.05,61.77,10.88,12.96-1.69,25.53-6.11,37.6-11.07,5.07-1.84,9.07,4.61,5.22,8.33-1.81,1.79-3.78,3.43-5.79,4.97-22.75,17.2-52.87,21.62-79.23,10.72-6.93-2.77-13.52-6.34-19.49-10.78-2.07-1.56-3.9-3.01-5.83-4.86-2.01-1.92-2.09-5.11-.17-7.12,1.59-1.67,3.95-1.94,5.92-1.06h0Z"/><path d="M134.7,54.5h50.61c.32,0,.64,.02,.95,.05,3.5,.38,21.87,3.43,23.94,25.95,2.29,24.91,16.89,41.04,16.89,41.04,0,0,11.25,13.64-5.59,12.1-15.68-1.44-34.04-18.11-36.49-20.39-.18-.17-.35-.34-.51-.52-1.77-1.94-11.76-14.42-13.52-18.59-4.16-9.89-34.43-12.09-40.7-11.73-5.74,.33-4.83-15.47-4.64-18.13,.02-.23,.02-.45,.02-.68,0-.05,0-.1,0-.16,.01-4.95,4.08-8.94,9.04-8.94Z"/><path d="M96.08,53.5H45.47c-.32,0-.64,.02-.95,.05-3.5,.38-21.87,3.43-23.94,25.95-2.29,24.91-16.89,41.04-16.89,41.04,0,0-11.25,13.64,5.59,12.1,15.68-1.44,34.04-18.11,36.49-20.39,.18-.17,.35-.34,.51-.52,1.77-1.94,11.76-14.42,13.52-18.59,4.16-9.89,34.43-12.09,40.7-11.73,5.74,.33,4.83-15.47,4.64-18.13-.02-.23-.02-.45-.02-.68,0-.05,0-.1,0-.16-.01-4.95-4.08-8.94-9.04-8.94Z"/></svg>