<svg id="Layer_1" data-name="Layer 1" xmlns="http://www.w3.org/2000/svg" viewBox="0 0 347.42 248.43"><defs><style>.cls-1{fill:#c00;}.cls-2{fill:#ea160c;}.cls-3{fill:#1ca10d;}.cls-4{fill:#24b210;}.cls-5{fill:#fccc0b;}.cls-6{fill:#eabf07;}.cls-7{fill:#0067c0;}.cls-8{fill:#077bd3;}</style></defs><rect class="cls-1" x="99.37" y="99.37" width="49.69" height="49.69"/><circle class="cls-2" cx="124.22" cy="124.22" r="15.6"/><rect class="cls-1" x="148.67" y="99.37" width="49.69" height="49.69"/><circle class="cls-2" cx="173.52" cy="124.22" r="15.6"/><rect class="cls-1" x="198.36" y="99.37" width="49.69" height="49.69"/><circle class="cls-2" cx="223.2" cy="124.22" r="15.6"/><rect class="cls-3" x="248.05" y="99.37" width="49.69" height="49.69"/><circle class="cls-4" cx="272.89" cy="124.22" r="15.6"/><rect class="cls-3" x="198.36" y="149.06" width="49.69" height="49.69"/><circle class="cls-4" cx="223.2" cy="173.9" r="15.6"/><rect class="cls-5" x="198.36" y="49.69" width="49.69" height="49.69"/><circle class="cls-6" cx="223.2" cy="74.53" r="15.6"/><rect class="cls-5" x="248.05" y="49.69" width="49.69" height="49.69"/><circle class="cls-6" cx="272.89" cy="74.53" r="15.6"/><rect class="cls-3" x="248.05" y="149.06" width="49.69" height="49.69"/><circle class="cls-4" cx="272.89" cy="173.9" r="15.6"/><rect class="cls-3" x="297.73" y="99.37" width="49.69" height="49.69"/><circle class="cls-4" cx="322.58" cy="124.22" r="15.6"/><rect class="cls-5" x="198.36" width="49.69" height="49.69"/><circle class="cls-6" cx="223.2" cy="24.84" r="15.6"/><rect class="cls-3" x="198.36" y="198.75" width="49.69" height="49.69"/><circle class="cls-4" cx="223.2" cy="223.59" r="15.6"/><rect class="cls-7" x="49.69" y="99.37" width="49.69" height="49.69"/><circle class="cls-8" cx="74.53" cy="124.22" r="15.6"/><rect class="cls-7" y="99.37" width="49.69" height="49.69"/><circle class="cls-8" cx="24.84" cy="124.22" r="15.6"/></svg>