<?xml version="1.0" encoding="utf-8"?>
<!-- Generator: Adobe Illustrator 26.2.1, SVG Export Plug-In . SVG Version: 6.00 Build 0)  -->
<svg version="1.1" id="Layer_1" xmlns="http://www.w3.org/2000/svg" xmlns:xlink="http://www.w3.org/1999/xlink" x="0px" y="0px"
	 viewBox="0 0 347.4 288.9" style="enable-background:new 0 0 347.4 288.9;" xml:space="preserve">
<style type="text/css">
	.st0{fill:#FCCC0B;}
	.st1{fill:#1CA10D;}
	.st2{fill:#A50404;}
	.st3{fill:#0067C0;}
	.st4{fill:#035C93;}
	.st5{fill:#CC0000;}
	.st6{fill:#EA160C;}
	.st7{fill:#24B210;}
	.st8{fill:#EABF07;}
	.st9{fill:#077BD3;}
	.st10{fill:#1A840B;}
</style>
<polygon class="st0" points="248,49.7 248,0 198.4,0 198.4,49.7 198.4,99.4 248,99.4 297.7,99.4 297.7,49.7 "/>
<polygon class="st1" points="248,99.4 248,149.1 198.4,149.1 198.4,198.7 198.4,248.4 248,248.4 248,198.7 297.7,198.7 297.7,149.1 
	347.4,149.1 347.4,99.4 "/>
<rect x="99.4" y="149.1" class="st2" width="99" height="40.4"/>
<rect y="99.4" class="st3" width="99.4" height="49.7"/>
<rect y="149.1" class="st4" width="99.4" height="40.4"/>
<rect x="99.4" y="99.4" class="st5" width="148.7" height="49.7"/>
<g>
	<circle class="st6" cx="124.2" cy="124.2" r="15.6"/>
</g>
<g>
	<circle class="st6" cx="173.5" cy="124.2" r="15.6"/>
</g>
<g>
	<circle class="st6" cx="223.2" cy="124.2" r="15.6"/>
</g>
<g>
	<circle class="st7" cx="272.9" cy="124.2" r="15.6"/>
</g>
<g>
	<circle class="st7" cx="223.2" cy="173.9" r="15.6"/>
</g>
<g>
	<circle class="st8" cx="223.2" cy="74.5" r="15.6"/>
</g>
<g>
	<circle class="st8" cx="272.9" cy="74.5" r="15.6"/>
</g>
<g>
	<circle class="st7" cx="272.9" cy="173.9" r="15.6"/>
</g>
<g>
	<circle class="st7" cx="322.6" cy="124.2" r="15.6"/>
</g>
<g>
	<circle class="st8" cx="223.2" cy="24.8" r="15.6"/>
</g>
<g>
	<circle class="st7" cx="223.2" cy="223.6" r="15.6"/>
</g>
<g>
	<circle class="st9" cx="74.5" cy="124.2" r="15.6"/>
</g>
<g>
	<circle class="st9" cx="24.8" cy="124.2" r="15.6"/>
</g>
<rect x="297.7" y="149.1" class="st10" width="49.7" height="40.4"/>
<rect x="248" y="198.7" class="st10" width="49.7" height="40.4"/>
<rect x="198.4" y="248.4" class="st10" width="49.7" height="40.4"/>
</svg>
