<?xml version="1.0" encoding="utf-8"?>
<!-- Generator: Adobe Illustrator 26.2.1, SVG Export Plug-In . SVG Version: 6.00 Build 0)  -->
<svg version="1.1" id="Layer_1" xmlns="http://www.w3.org/2000/svg" xmlns:xlink="http://www.w3.org/1999/xlink" x="0px" y="0px"
	 viewBox="0 0 272.3 181.6" style="enable-background:new 0 0 272.3 181.6;" xml:space="preserve">
<style type="text/css">
	.st0{fill:#E7C734;}
	.st1{fill:#231F20;}
	.st2{fill:#ED1C24;stroke:#231F20;stroke-width:17;stroke-miterlimit:10;}
	.st3{fill:#ED1C24;stroke:#231F20;stroke-width:6;stroke-linecap:round;stroke-miterlimit:10;}
	.st4{fill:#ED1C24;}
	.st5{fill:#ED1C24;stroke:#000000;stroke-width:6;stroke-linecap:round;stroke-miterlimit:10;}
	.st6{fill:#FFFFFF;}
	.st7{fill:#E0DCD5;}
	.st8{fill:#4D97FF;}
	.st9{fill:#435F8C;}
	.st10{fill:#FFFFFF;stroke:#000000;stroke-width:17.517;stroke-miterlimit:10;}
	.st11{fill:none;stroke:#70AFF9;stroke-width:6.4775;stroke-linecap:round;stroke-miterlimit:10;}
	.st12{fill:#FFFFFF;stroke:#000000;stroke-width:18;stroke-miterlimit:10;}
	.st13{fill:#FF0000;}
	.st14{fill:#FFFA21;}
	.st15{fill:#848484;}
	.st16{fill:#C54400;}
	.st17{fill:none;stroke:#000000;stroke-width:6;stroke-miterlimit:10;}
	.st18{fill:none;stroke:#000000;stroke-width:8;stroke-miterlimit:10;}
	.st19{fill:none;stroke:#C54400;stroke-width:4.8004;stroke-miterlimit:10;}
	.st20{fill:none;stroke:#000000;stroke-width:2.4002;stroke-miterlimit:10;}
</style>
<path d="M205.7,79.4c0.6,0.1,1.2,0.2,1.7,0.4c3.7,0.8,7.4,2.1,11.2,3.5c-11.5-12.2-32.9-11.4-44.8-0.1c4.3-1.9,8.8-3.2,13.3-4
	c-4.7,3-7.9,8.3-7.9,14.3c0,9.3,7.6,16.9,16.9,16.9c9.3,0,16.9-7.6,16.9-16.9C213.1,87.6,210.1,82.4,205.7,79.4z"/>
<path d="M104.7,80.5c2.8,0.8,5.5,1.7,8.4,2.8C101.6,71,80.2,71.8,68.3,83.1c5.6-2.4,11.4-4,17.3-4.5c-5.2,2.9-8.7,8.4-8.7,14.8
	c0,9.3,7.6,16.9,16.9,16.9c9.3,0,16.9-7.6,16.9-16.9C110.7,88.2,108.4,83.6,104.7,80.5z"/>
<path d="M272.3,67.8l-32,12.9c-5-22.3-22.9-38.8-44.1-38.8c-22.7,0-41.6,18.9-45,43.6h-15.6c-3.4-24.7-22.3-43.6-45-43.6
	c-22,0-40.4,17.7-44.6,41.2L0,67.5v8.5l45.1,15.4c0,0.7,0,1.4,0,2.2c0,28.4,20.4,51.5,45.5,51.5c25.1,0,45.5-23.1,45.5-51.5h14.5
	c0,28.4,20.5,51.5,45.5,51.5c25.1,0,45.5-23.1,45.5-51.5c0-1.5-0.1-3.1-0.2-4.6l30.8-12.5V67.8z M90.6,139
	C68.8,139,51,118.6,51,93.5C51,68.4,68.8,48,90.6,48s39.5,20.4,39.5,45.5C130.1,118.6,112.4,139,90.6,139z M196.2,139
	c-21.8,0-39.5-20.4-39.5-45.5c0-25.1,17.7-45.5,39.5-45.5s39.5,20.4,39.5,45.5C235.7,118.6,218,139,196.2,139z"/>
<path class="st16" d="M102.7,42.9c-0.2-9.1-3.5-20.7-3.5-20.8l-3-10.3l7.1,8c4.2,4.8,10.1,8.5,13.9,10.6c-1-11.2,0.5-29.5,0.6-30.4
	l4.8,0.4c0,0.2-2,24.8,0,33.7l1,4.6l-4.3-1.9c-0.4-0.2-7.1-3.1-13.6-8.2c0.9,4.2,1.7,9.4,1.8,14.2L102.7,42.9z"/>
<ellipse class="st6" cx="101.5" cy="89.9" rx="5.1" ry="6.1"/>
<ellipse class="st6" cx="202.2" cy="88.5" rx="4.2" ry="5.1"/>
<path d="M68.3,70.5c11.2-10.6,27.7-10.4,41.5-5.3c1.9,0.8,3.9,1.7,5.4,3.2c-1.9-0.7-3.9-0.9-5.9-1.1c-3.4-0.4-8.5-0.8-12-1.1
	C87.3,64.9,77.6,66.5,68.3,70.5L68.3,70.5z"/>
<path d="M177.4,66c11.9-11.3,33.3-12.1,44.8,0.1c-3.8-1.4-7.5-2.7-11.2-3.5C199.7,59.9,188.1,61.4,177.4,66L177.4,66z"/>
<path d="M120.9,177c8.4,0,17.9,0.7,26.3,0.6c2.9,0,5.8-0.1,8.9-0.1c0,0,0.2,0.7,0.2,0.7c-5.6,2.3-11.7,3.2-17.8,3.3
	c-6.1,0-12.1-0.6-17.9-2.8C120.5,178.8,120.9,177,120.9,177L120.9,177z"/>
<path d="M184.2,161.9c-0.7,0-1.3,0.4-1.6,0.9c-5.9,0.9-28.5,4-39.1,3.5c-3.1-0.2-6.5-0.3-10.2-0.4c-9.8-0.2-20.8-0.5-29.5-2.7
	c-0.2-2.1-1.2-3.8-2.4-3.8c-1.3,0-2.4,2-2.4,4.4c0,2.4,1.1,4.4,2.4,4.4c1,0,1.8-1,2.2-2.5c8.9,2.2,19.8,2.5,29.6,2.7
	c3.6,0.1,7,0.2,10.1,0.3c0.9,0.1,2,0.1,3.1,0.1c11.7,0,31.1-2.7,36.6-3.6c0.3,0.3,0.8,0.5,1.3,0.5c1,0,1.9-0.8,1.9-1.9
	C186.1,162.8,185.2,161.9,184.2,161.9z"/>
</svg>
